<?xml version="1.0" encoding="utf-8"?>
<!-- Generator: Adobe Illustrator 20.1.0, SVG Export Plug-In . SVG Version: 6.00 Build 0)  -->
<!DOCTYPE svg PUBLIC "-//W3C//DTD SVG 1.1//EN" "http://www.w3.org/Graphics/SVG/1.1/DTD/svg11.dtd">
<svg version="1.1" id="Layer_1" xmlns="http://www.w3.org/2000/svg" xmlns:xlink="http://www.w3.org/1999/xlink" x="0px" y="0px"
	 viewBox="0 0 1934.9 792" style="enable-background:new 0 0 1934.9 792;" xml:space="preserve">
<style type="text/css">
	.st0{fill:#07090A;}
	.st1{fill:#231F20;}
</style>
<path class="st0" d="M1121.6,417.7c0,93.6,0,187.2,0,280.9c0,0.7,0,1.4,0,2.2c0,0.5-0.1,1-0.3,1.5c-0.3,1-0.9,1.8-1.8,2.4
	c-0.8,0.5-1.6,0.9-2.4,1.4c-12.7,7.3-25.5,14.6-38.2,22c-27.9,16-55.8,32-83.7,48.1c-0.7,0.4-1.4,0.8-2.1,1.2
	c-1.6,0.8-3.2,0.9-4.7,0c-3.7-2-7.3-4.2-11-6.2c-0.3-0.2-0.5-0.3-0.8-0.5c-1-0.8-1.7-1.8-1.7-3.1c0-0.9,0-1.9,0-2.8
	c0-20.5,0-40.9,0-61.4c0-1,0-2.1-0.1-3.1c-0.2-0.1-0.3-0.3-0.5-0.3c-0.2,0-0.4,0-0.6,0.1c-0.9,0.5-1.8,1-2.7,1.5
	c-9.2,5.3-18.4,10.5-27.5,15.8c-1.3,0.8-2.7,1.4-4.2,1.8c-1.8,0.4-3.6,1-5.4,1.4c-0.1,0-0.2,0.1-0.3,0.1c-3,0.7-2.5,0.7-5.4,0
	c-2-0.5-4-1.1-5.9-1.6c-1.3-0.3-2.5-0.8-3.7-1.5c-9.6-5.5-19.2-11.1-28.9-16.6c-26.3-15.1-52.5-30.3-78.8-45.4
	c-0.7-0.4-1.4-0.8-2.1-1.2c-0.9-0.5-1.6-1.3-2-2.3c-0.2-0.4-0.3-0.8-0.3-1.2c0-0.4,0-0.8,0-1.2c0-0.8,0-1.6,0-2.5
	c0-127.7,0-255.4,0-383c0-1.1,0-2.3,0-3.4c0-1.3,0.7-2.4,1.7-3.2c0.5-0.4,1-0.7,1.6-1c2.9-1.7,5.9-3.3,8.9-5
	c56.5-31.9,112.9-63.8,169.4-95.8c0.8-0.5,1.6-0.9,2.4-1.3c1.2-0.5,2.4-0.5,3.6,0c0.7,0.3,1.5,0.8,2.2,1.2c7.6,4.3,15.2,8.7,22.7,13
	c1,0.6,2,1.1,3,1.6c0.3,0.2,0.6,0.1,0.9,0c0.6-0.3,1.3-0.7,1.9-1c9.9-5.7,19.8-11.4,29.7-17.1c15.7-9,31.4-18,47.1-27
	c0.6-0.4,1.2-0.7,1.9-1.1c0.5-0.2,0.9-0.4,1.4-0.6c0.7-0.2,1.4-0.3,2.1,0c0.6,0.2,1.2,0.4,1.7,0.7c3.5,2,7,4,10.5,5.9
	c0.2,0.1,0.3,0.2,0.5,0.3c1.4,0.9,2.1,2.2,2.2,3.8c0,0.4,0,0.8,0,1.2c0,1.4,0,2.9,0,4.3C1121.6,232.5,1121.6,325.1,1121.6,417.7z
	 M1008.2,294.7c0-0.9,0-1.8-0.1-2.8c0-0.3-0.4-0.5-0.7-0.3c-0.6,0.3-1.3,0.6-1.9,1c-15.9,9.1-31.7,18.2-47.6,27.4
	c-5.1,2.9-10.2,5.8-15.2,8.8c-0.8,0.5-1.6,0.8-2.5,1.1c-2.4,0.6-4.8,1.3-7.1,2c-1.5,0.4-3,0.4-4.6,0c-1.8-0.5-3.5-1.1-5.3-1.5
	c-2-0.5-3.9-1.3-5.7-2.3c-31-17.9-62-35.7-93-53.6c-2.6-1.5-5.2-3-7.7-4.5c-0.2-0.1-0.4-0.1-0.6-0.1c-0.2,0-0.4,0.1-0.4,0.3
	c0,1.1-0.1,2.3-0.1,3.4c0,123.4,0,246.7,0,370.1c0,0.9,0,1.9,0,2.8c-0.1,1,0.4,1.5,1.2,1.9c0.6,0.3,1.2,0.7,1.9,1.1
	c22.7,13.1,45.4,26.2,68.1,39.3c11.8,6.8,23.5,13.5,35.3,20.3c1.2,0.7,2.4,1.2,3.7,1.5c1.4,0.4,2.8,0.8,4.2,1.1c0.5,0.1,1,0.2,1.5,0
	c1.7-0.5,3.4-0.9,5.1-1.4c0.9-0.3,1.8-0.6,2.5-1.1c0.5-0.3,1.1-0.6,1.6-0.9c14-8,28-16.1,42-24.1c1.3-0.8,2.7-1.5,4-2.4
	c0.3-0.2,0.7-0.4,1.1-0.6c1.1-0.4,2-1,3-1.6c5-2.9,10-5.7,15-8.6c0.7-0.4,1.4-0.9,2.1-1.3c0.3-0.2,0.4-0.5,0.4-0.8c0-1,0-2.1,0-3.1
	c0-26.9,0-53.7,0-80.6c0-2.4,0-4.7,0-7.1c0-0.5,0-1-0.1-1.5c0-0.2-0.1-0.4-0.3-0.5c-0.5-0.3-1.1-0.5-1.6-0.9
	c-0.9-0.6-1.5-1.4-1.8-2.4c-0.1-0.5-0.2-1-0.3-1.5c0-0.7,0-1.4,0-2.2c0-58.7,0-117.5,0-176.2c0-0.7,0-1.4,0-2.2c0-0.5,0.1-1,0.2-1.5
	c0.2-0.9,0.7-1.7,1.5-2.3c0.2-0.2,0.5-0.4,0.8-0.5c0.3-0.2,0.7-0.5,1-0.7c0.3-0.3,0.6-0.6,0.6-1c0-0.9,0-1.9,0-2.8
	c0-14.5,0-29,0-43.5C1008.2,323.7,1008.2,309.2,1008.2,294.7z M974.9,290c-0.1-0.4-0.1-0.8-0.1-1.2c0-3.1,0-6.2,0-9.3
	c0-18.7,0-37.4,0-56.2c0-7,0-14,0-21c0-0.8,0-1.6,0.1-2.5c0-0.5,0.2-1,0.5-1.4c0.4-0.7,0.9-1.3,1.7-1.8c1-0.6,1.9-1.1,2.9-1.7
	c10.1-5.8,20.1-11.6,30.2-17.4c0.6-0.4,1.2-0.7,1.8-1.1c0.4-0.2,0.4-0.5,0.1-0.7c-0.3-0.2-0.5-0.4-0.7-0.5
	c-6.1-3.5-12.1-7-18.2-10.4c-0.1-0.1-0.2-0.1-0.3-0.1c-0.6-0.3-1.1-0.4-1.7-0.1c-1.5,0.9-3,1.7-4.6,2.6
	c-51.6,29.2-103.2,58.4-154.9,87.6c-3.3,1.9-6.6,3.7-9.9,5.6c-0.3,0.1-0.5,0.4-0.7,0.6c-0.2,0.2-0.2,0.4,0,0.5
	c0.6,0.4,1.2,0.8,1.8,1.1c32.2,18.6,64.5,37.2,96.7,55.7c1.4,0.8,2.9,1.6,4.3,2.4c1.7,0.5,3.4,0.9,5.1,1.4c0.4,0.1,0.8,0.2,1.2,0.3
	c0.4,0.1,0.8,0.1,1.2,0c1.4-0.4,2.8-0.7,4.2-1.1c1.5-0.4,2.9-1,4.2-1.8c10.9-6.3,21.7-12.5,32.6-18.8c0.6-0.4,1.2-0.7,1.8-1.1
	C975.7,296.6,975.6,293.3,974.9,290z M1112.1,147.8c0-1.1,0-2.3,0-3.4c0-0.3-0.1-0.6-0.1-0.9c0-0.2-0.5-0.5-0.7-0.4
	c-0.9,0.5-1.8,1-2.7,1.5c-27.3,15.7-54.5,31.3-81.8,47c-9.8,5.6-19.6,11.2-29.4,16.9c-0.5,0.3-1.1,0.6-1.6,1
	c-0.2,0.2-0.5,0.4-0.5,0.7c0,0.8,0,1.6,0,2.5c0,6.1,0,12.1,0,18.2c0,17.1,0,34.2,0,51.2c0,1,0,2.1,0.1,3.1c0,0.2,0.2,0.3,0.5,0.3
	c0.3,0,0.6-0.1,0.8-0.3c3.9-2.3,7.8-4.5,11.8-6.8c0.7-0.4,1.4-0.8,2.1-1.2c0.7-0.4,1.6-0.6,2.4-0.6c1.8,0.1,3.1,0.9,4,2.5
	c0.2,0.5,0.5,0.9,0.5,1.4c0,1.1,0.1,2.3,0.1,3.4c0,31.5,0,63,0,94.4c0,0.8,0,1.6,0,2.5c0,0.2,0,0.4,0.1,0.6c0.1,0.1,0.4,0.3,0.5,0.3
	c1-0.3,1.8-0.9,2.7-1.4c23.6-13.6,47.2-27.1,70.8-40.7c0.7-0.4,1.4-0.8,2.1-1.2c0.6-0.4,1.3-0.6,2-0.7c0.3-0.1,0.6-0.1,0.9,0
	c0.5,0.1,1,0.2,1.5,0.4c1.5,0.7,2.5,1.9,2.6,3.5c0.1,1.1,0.1,2.3,0.1,3.4c0,56.4,0,112.8,0,169.1c0,0.7,0,1.4,0,2.2
	c0,0.4,0,0.8-0.1,1.2c0,0.4-0.2,0.8-0.4,1.2c-0.4,0.7-0.9,1.4-1.6,1.8c-0.5,0.3-1.1,0.6-1.6,0.9c-17.9,10.3-35.8,20.6-53.7,30.9
	c-7.8,4.5-15.7,9-23.5,13.5c-0.7,0.4-1.5,0.8-2.1,1.3c-0.2,0.1-0.3,0.3-0.3,0.5c0,1-0.1,2.1-0.1,3.1c0,32.7,0,65.4,0,98.1
	c0,1.2,0,2.5,0,3.7c0,0.5,0,1-0.1,1.5c0,0.3-0.1,0.6-0.2,0.9c-0.4,1-1.1,1.8-2,2.3c-0.5,0.3-1.1,0.6-1.6,0.9
	c-5.2,3-10.3,5.9-15.5,8.9c-3.4,2-2.8,1-2.8,5c0,23,0,46.1,0,69.1c0,0.6,0,1.2,0,1.9c0,0.3,0,0.6,0,0.9c0,0.4,0.5,0.7,0.9,0.5
	c0.9-0.5,1.8-1,2.7-1.5c32.9-18.9,65.8-37.8,98.7-56.7c4.1-2.4,8.2-4.7,12.3-7.1c0.5-0.3,1.1-0.6,1.6-0.9c0.4-0.2,0.6-0.6,0.6-1
	c0-1.1,0-2.3,0-3.4c0-91.2,0-182.3,0-273.5C1112.1,329.7,1112.1,238.8,1112.1,147.8z M1013.6,554.5c0,1,0,2.1,0,3.1
	c0,0.2,0,0.4,0.1,0.6c0.1,0.1,0.3,0.2,0.5,0.3c0.9-0.5,1.8-1,2.7-1.5c17.2-9.9,34.4-19.8,51.6-29.7c6.9-4,13.9-8,20.9-12
	c0.5-0.3,1.1-0.6,1.6-1c0.4-0.2,0.6-0.5,0.6-1c0-1,0-2.1,0-3.1c0-51.8,0-103.7,0-155.5c0-0.7,0-1.4,0-2.2c0-0.3,0-0.6,0-0.9
	c0-0.5-0.4-0.8-0.8-0.6c-0.5,0.3-1.1,0.6-1.6,0.9c-22.4,12.9-44.7,25.7-67.1,38.6c-2.7,1.5-5.3,3.1-8.1,4.5
	c-0.2,0.1-0.3,0.3-0.3,0.5c-0.2,1-0.1,2.1-0.1,3.1c0,26,0,52.1,0,78.1C1013.6,502.6,1013.6,528.5,1013.6,554.5z"/>
<path d="M987.2,201.3c-0.1-1.1,0.5-1.8,1.3-2.3c0.2-0.2,0.5-0.3,0.8-0.5c0.7-0.4,1.5-0.7,2.1-1.3c0.3-0.3,0.7-0.4,1.1-0.6
	c0.7-0.4,1.5-0.7,2.1-1.3c0.4-0.3,0.9-0.5,1.3-0.8c0.4-0.3,0.9-0.5,1.3-0.8c0.6-0.5,1.2-0.8,1.8-1.1c0.7-0.4,1.5-0.7,2.2-1.1
	c0.6-0.3,1.3-0.6,1.8-1.1c0.3-0.3,0.7-0.4,1.1-0.6c0.7-0.4,1.5-0.7,2.1-1.3c0.4-0.3,0.9-0.5,1.3-0.8c1.1-0.6,2.2-1.1,3.2-1.8
	c0.4-0.3,0.9-0.5,1.3-0.7c1-0.5,2-1,2.9-1.7c0.3-0.3,0.7-0.4,1.1-0.6c0.4-0.2,0.8-0.3,1.1-0.6c1.1-0.9,2.5-1.5,3.7-2.1
	c0.9-0.5,1.9-0.9,2.7-1.6c0.2-0.2,0.5-0.3,0.8-0.5c0.8-0.4,1.6-0.9,2.4-1.4c0.6-0.4,1.3-0.6,1.9-1c1.6-1.2,3.4-1.9,5.1-2.8
	c0.4-0.2,0.7-0.4,1.1-0.6c0.6-0.5,1.2-0.8,1.8-1.1c0.1,0,0.2-0.1,0.3-0.1c0.8-0.5,1.6-1,2.4-1.4c0.8-0.5,1.6-0.8,2.5-1.3
	c1.4-1.2,3.2-1.9,4.8-2.7c1.1-0.6,2.1-1.3,3.1-2c0.5-0.3,1-0.7,1.6-1c1.2-0.6,2.4-1.1,3.5-2c0.2-0.1,0.4-0.2,0.5-0.3
	c0.8-0.4,1.6-0.9,2.4-1.4c0.7-0.5,1.4-0.8,2.2-1.2c1.2-0.6,2.4-1.1,3.5-2c0.2-0.1,0.3-0.2,0.5-0.3c0.9-0.5,1.8-0.9,2.6-1.6
	c0.3-0.3,0.7-0.4,1.1-0.6c0.4-0.2,0.9-0.5,1.3-0.8c0.6-0.5,1.4-0.9,2.1-1.3c0.8-0.4,1.7-0.8,2.5-1.3c0.8-0.4,1.6-1,2.4-1.4
	c0.7-0.4,1.5-0.7,2.1-1.3c0.2-0.2,0.5-0.3,0.8-0.5c1.4-0.7,2.8-1.3,4-2.3c0.3-0.3,0.7-0.4,1.1-0.6c1-0.5,2-0.9,2.9-1.7
	c0.3-0.3,0.7-0.4,1.1-0.6c0.4-0.2,0.8-0.3,1.1-0.6c1.2-1,2.6-1.6,4-2.3c0.8-0.4,1.7-0.8,2.4-1.4c0.2-0.2,0.5-0.3,0.8-0.5
	c0.3-0.1,0.6-0.3,0.8-0.4c0.8-0.5,1.6-1,2.4-1.4c0.8-0.5,1.7-0.8,2.5-1.3c1.1-0.8,2.3-1.4,3.5-2c0.5-0.2,1-0.3,1.5-0.3
	c1.2-0.1,2,0.5,2.6,1.4c0.4,0.6,0.4,1.8-0.1,2.3c-0.7,0.8-1.4,1.5-2.3,2c-0.7,0.3-1.5,0.7-2.1,1.3c-0.2,0.1-0.3,0.3-0.5,0.3
	c-0.9,0.5-1.9,0.9-2.7,1.4c-0.9,0.5-1.7,1.2-2.6,1.6c-1,0.4-1.7,1.2-2.6,1.6c-0.8,0.4-1.7,0.7-2.5,1.3c-1.1,0.8-2.3,1.4-3.5,2
	c-0.5,0.3-1.1,0.6-1.6,1c-0.4,0.3-0.9,0.5-1.3,0.8c-0.4,0.2-0.8,0.3-1.1,0.6c-1.1,0.9-2.5,1.5-3.7,2.1c-0.9,0.5-1.9,0.9-2.7,1.6
	c-0.2,0.2-0.5,0.3-0.8,0.5c-0.8,0.4-1.6,0.9-2.4,1.4c-0.6,0.4-1.3,0.6-1.9,1c-1.6,1.2-3.4,1.9-5.1,2.8c-0.4,0.2-0.7,0.4-1.1,0.6
	c-0.6,0.5-1.2,0.8-1.8,1.1c-0.1,0-0.2,0.1-0.3,0.1c-0.8,0.5-1.6,1-2.4,1.4c-0.8,0.5-1.6,0.8-2.5,1.3c-1.2,1-2.6,1.6-4,2.3
	c-0.3,0.1-0.6,0.3-0.8,0.5c-0.6,0.5-1.4,0.9-2.1,1.3c-0.4,0.2-0.7,0.4-1.1,0.6c-0.6,0.5-1.4,0.9-2.1,1.3c-0.8,0.4-1.7,0.8-2.5,1.3
	c-0.8,0.4-1.6,1-2.4,1.4c-0.7,0.4-1.5,0.7-2.1,1.3c-0.2,0.2-0.5,0.3-0.8,0.5c-1.4,0.7-2.8,1.3-4,2.3c-0.2,0.2-0.5,0.3-0.8,0.4
	c-0.7,0.4-1.5,0.7-2.2,1.1c-0.6,0.3-1.1,0.9-1.8,1.2c-1,0.9-2.2,1.4-3.4,2c-1.1,0.6-2.3,1-3.2,1.8c-0.3,0.3-0.7,0.4-1.1,0.6
	c-0.6,0.3-1.3,0.6-1.8,1.1c-0.2,0.2-0.5,0.3-0.8,0.5c-1.4,0.7-2.8,1.3-4,2.3c-0.3,0.3-0.7,0.4-1.1,0.6c-1,0.5-2,0.9-2.9,1.7
	c-0.3,0.3-0.7,0.4-1.1,0.6c-0.4,0.2-0.8,0.3-1.1,0.6c-1.2,1-2.6,1.6-4,2.3c-0.8,0.4-1.7,0.8-2.4,1.4c-0.2,0.2-0.5,0.3-0.8,0.5
	c-0.8,0.4-1.6,0.8-2.4,1.4c-0.4,0.3-0.9,0.5-1.3,0.7c-0.5,0.3-1.1,0.6-1.6,1c-0.4,0.3-0.9,0.5-1.3,0.8c-0.9,0.5-1.8,0.9-2.7,1.4
	c-0.5,0.2-0.9,0.5-1.3,0.8c-0.5,0.4-1,0.6-1.6,0.9c-0.5,0.3-1.1,0.6-1.6,1c-1,0.8-2.1,1.3-3.3,1.7c-0.7,0.2-1.4,0.1-2-0.4
	C987.6,203,987.1,202.3,987.2,201.3z"/>
<path d="M987.2,248.3c0,11.5,0,23,0,34.5c0,0.9,0,1.8,0,2.8c0,0.9-0.5,1.5-1.1,2.1c-0.7,0.6-1.9,0.6-2.6,0c-0.2-0.2-0.5-0.4-0.7-0.6
	c-0.3-0.3-0.5-0.7-0.5-1.1c0-0.8-0.1-1.6-0.1-2.5c0-7,0-14,0-21c0-0.8,0-1.6,0-2.5c0-0.5-0.1-1-0.3-1.5c-0.2-0.6-0.3-1.2-0.3-1.8
	c0-0.7,0-1.4,0-2.2c0-13.8,0-27.5,0-41.3c0-0.7,0-1.4,0-2.2c0-0.8,0.3-1.4,0.8-1.9c0.3-0.3,0.6-0.6,0.9-0.8c0.7-0.6,1.5-0.6,2.2,0.1
	c0.3,0.3,0.6,0.6,0.9,0.9c0.4,0.5,0.7,1,0.7,1.7c0,0.9,0,1.8,0,2.8C987.2,225.3,987.2,236.8,987.2,248.3L987.2,248.3z"/>
<path d="M982.3,729c0-10.9,0-21.8,0-32.7c0-0.9,0-1.8,0.1-2.8c0-0.4,0.2-0.8,0.5-1.1c0.5-0.7,1.2-1.1,2.1-1.1c1,0,1.8,0.3,2.4,1.1
	c0.3,0.3,0.4,0.7,0.5,1.1c0,0.8,0,1.6,0,2.5c0,11.9,0,23.9,0,35.8c0,9.7,0,19.3,0,29c0,0.8,0,1.6,0,2.5c-0.1,1.5-0.7,2.8-2,3.7
	c-0.4,0.3-1.1,0.3-1.5,0.1c-0.1-0.1-0.2-0.1-0.3-0.2c-0.4-0.4-0.9-0.8-1.3-1.3c-0.3-0.3-0.5-0.7-0.5-1.1c0-0.8,0-1.6,0-2.5
	C982.3,751,982.3,740,982.3,729z"/>
<path d="M974.2,299.7c0-2.8,0.1-5.5,0.4-8.3c0-0.5,0.1-1,0.3-1.5c0.3-0.3,0.6-0.6,0.6-1c0-1,0-2.1,0.1-3.1c0-0.3,0-0.6,0.1-0.9
	c0.2-0.5,0.5-0.9,1.1-1c0.6-0.2,1.2-0.2,1.8,0c0.3,0.1,0.6,0.2,0.8,0.5c0.6,0.8,1.1,1.7,1.1,2.8c0,1.2,0,2.5,0.1,3.7
	c0,0.3,0.2,0.6,0.4,0.8c0.6,0.5,1.2,0.8,2,0.8c0.5,0,1,0,1.5,0.1c0.4,0,0.8,0.3,1.1,0.5c0.9,0.7,1.1,1.7,1,2.7
	c-0.1,1-0.8,1.6-1.6,2.1c-0.3,0.1-0.6,0.2-0.9,0.2c-0.9,0.1-1.8-0.1-2.8,0.1c-0.3,0.1-0.6,0.3-0.7,0.6c0,0.1-0.1,0.2-0.1,0.3
	c0,0.2-0.1,0.4-0.1,0.6c0,1-0.4,1.8-0.9,2.6c-0.3,0.4-0.6,0.8-1.1,1.1c-0.5,0.3-1.1,0.6-1.7,0.8c-0.4,0.1-0.8,0.1-1.2-0.2
	c-0.2-0.2-0.5-0.4-0.7-0.6c-0.4-0.4-0.6-0.8-0.6-1.4C974.2,301.2,974.2,300.5,974.2,299.7z"/>
<path class="st0" d="M1078.7,206.4c0,2.9-0.7,6.5-1.9,10c-2.2,6.7-5.8,12.7-10.6,17.8c-1.7,1.8-3.6,3.4-5.6,4.8
	c-1.6,1.1-3.3,2.1-5.1,2.8c-3,1.3-6,1.9-9.3,1.8c-3.3-0.1-6.3-1-9.1-2.6c-0.6-0.4-1.2-0.8-1.7-1.3c-2.6-2.4-4.5-5.3-5.5-8.7
	c-1.2-3.8-1.4-7.6-0.9-11.6c1.3-10.6,7.2-19.9,12.4-25.3c1.9-2,4.1-3.8,6.4-5.3c2.6-1.7,5.4-3,8.4-3.6c0.6-0.1,1.2-0.3,1.8-0.3
	c1.4-0.2,2.9-0.2,4.3-0.1c2.3,0.1,4.4,0.8,6.5,1.7c0.6,0.3,1.1,0.6,1.6,0.9c4,2.9,6.4,6.8,7.6,11.6
	C1078.6,201.3,1078.7,203.4,1078.7,206.4z M1068.7,200.6c-0.7-2.1-1.8-3.9-3.6-5.3c-0.2-0.1-0.3-0.3-0.5-0.3
	c-0.6-0.2-1.1-0.5-1.7-0.6c-1.6-0.3-3.3-0.3-4.9,0.1c-2,0.5-3.8,1.4-5.6,2.6c-1.6,1.1-3.1,2.4-4.4,3.8c-4,4.3-6.9,9.2-8.7,14.8
	c-0.7,2.2-1,4.4-1.2,6.7c-0.1,1.3,0.1,2.7,0.3,4c0.3,2.2,1.2,4.1,2.6,5.8c0.5,0.6,1.1,1,1.7,1.3c2.2,1,4.5,1.2,6.9,0.6
	c1.9-0.5,3.6-1.4,5.3-2.5c1.9-1.3,3.6-2.8,5.1-4.5c3.6-4,6.2-8.5,7.9-13.5c0.9-2.6,1.5-5.3,1.5-8.3
	C1069.4,203.8,1069.2,202.2,1068.7,200.6z"/>
<path class="st0" d="M1078.7,685.2c0,3.4-0.7,7-1.9,10.5c-2.2,6.7-5.8,12.7-10.7,17.8c-1.6,1.7-3.4,3.3-5.4,4.6
	c-1.6,1.1-3.3,2.1-5.1,2.9c-3.2,1.4-6.5,2-9.9,1.9c-2.1-0.1-4.1-0.6-6-1.3c-2.5-0.9-4.5-2.4-6.2-4.5c-2.3-2.9-3.8-6.1-4.5-9.7
	c-0.4-2.3-0.6-4.7-0.4-7.1c0.2-2.6,0.7-5.1,1.4-7.6c2-6.8,5.4-12.9,10.2-18.1c2.1-2.3,4.4-4.4,6.9-6.1c2.1-1.4,4.4-2.6,6.9-3.4
	c3.1-1.1,6.2-1.3,9.4-0.9c1.9,0.2,3.8,0.8,5.6,1.7c0.5,0.2,0.9,0.5,1.3,0.8c4,2.9,6.5,6.8,7.6,11.6
	C1078.6,680.8,1078.7,682.1,1078.7,685.2z M1068.7,679.9c-0.5-1.8-1.4-3.4-2.8-4.7c-0.7-0.6-1.5-1.1-2.4-1.4
	c-1.7-0.6-3.4-0.6-5.2-0.2c-2,0.5-3.9,1.3-5.6,2.5c-1.7,1.1-3.3,2.5-4.7,4c-3.3,3.5-5.8,7.4-7.7,11.8c-1.2,3-2,6-2.3,9.2
	c-0.1,1-0.1,2.1,0.1,3.1c0.1,0.5,0.2,1,0.2,1.5c0.3,2.1,1.2,3.9,2.5,5.5c0.5,0.7,1.2,1.1,2,1.5c1.2,0.5,2.5,0.8,3.9,0.8
	c1.2,0,2.4-0.2,3.6-0.6c1.7-0.6,3.2-1.4,4.7-2.3c1.9-1.3,3.6-2.8,5.1-4.5c4-4.5,6.8-9.6,8.3-15.3c0.5-2,0.9-4,0.9-6
	C1069.4,683.1,1069.2,681.5,1068.7,679.9z"/>
<rect x="922.1" y="327.7" class="st1" width="10" height="385.9"/>
</svg>
